<?xml version="1.0" encoding="UTF-8"?>
<svg width="48" height="48" viewBox="0 0 48 48" fill="none" xmlns="http://www.w3.org/2000/svg">
  <circle cx="24" cy="24" r="24" fill="#E3F2FD"/>
  <path d="M36 28H34V22C34 19.8 32.2 18 30 18H18C15.8 18 14 19.8 14 22V28H12C11.4 28 11 28.4 11 29V31C11 31.6 11.4 32 12 32H14V33C14 34.1 14.9 35 16 35H18C19.1 35 20 34.1 20 33V32H28V33C28 34.1 28.9 35 30 35H32C33.1 35 34 34.1 34 33V32H36C36.6 32 37 31.6 37 31V29C37 28.4 36.6 28 36 28ZM18 31C17.4 31 17 30.6 17 30C17 29.4 17.4 29 18 29C18.6 29 19 29.4 19 30C19 30.6 18.6 31 18 31ZM30 31C29.4 31 29 30.6 29 30C29 29.4 29.4 29 30 29C30.6 29 31 29.4 31 30C31 30.6 30.6 31 30 31ZM32 26H16V22C16 20.9 16.9 20 18 20H30C31.1 20 32 20.9 32 22V26Z" fill="#2196F3"/>
</svg>
